<?xml version="1.0" encoding="utf-8"?>
<!-- Generator: Adobe Illustrator 23.0.1, SVG Export Plug-In . SVG Version: 6.00 Build 0)  -->
<svg version="1.1" id="Layer_1" xmlns="http://www.w3.org/2000/svg" xmlns:xlink="http://www.w3.org/1999/xlink" x="0px" y="0px"
	 viewBox="0 0 861.1 364.29" style="enable-background:new 0 0 861.1 364.29;" xml:space="preserve">
<style type="text/css">
	.st0{fill:#5C6270;}
</style>
<path class="st0" d="M858.65,139.95C839.31,62.66,710.68,0,571.35,0s-236.6,62.66-217.27,139.95c0.06,0.24,0.13,0.48,0.2,0.72
	c-9.07-0.47-18.28-0.72-27.62-0.72c-24.3,0-47.77,1.64-69.92,4.69c-11.95-26.77-60.83-46.54-121.19-46.54
	c-71.6,0-132.23,27.82-135.42,62.14c-2.71,29.11,36.78,53.54,92.51,60.29c-6.39,10.02-9.83,20.63-9.83,31.6
	c0,61.95,109.17,112.17,243.84,112.17c37.49,0,73-3.9,104.74-10.85c0.81,0,1.61,0.01,2.42,0.01c110.91,0,200.81-29.56,200.81-66.03
	c0-2.57-0.46-5.11-1.33-7.6c2.69,0.05,5.38,0.08,8.08,0.08C780.71,279.89,877.99,217.24,858.65,139.95z"/>
</svg>
