<?xml version="1.0" encoding="utf-8"?>
<!-- Generator: Adobe Illustrator 23.0.1, SVG Export Plug-In . SVG Version: 6.00 Build 0)  -->
<svg version="1.1" id="Layer_1" xmlns="http://www.w3.org/2000/svg" xmlns:xlink="http://www.w3.org/1999/xlink" x="0px" y="0px"
	 viewBox="0 0 861.1 542.95" style="enable-background:new 0 0 861.1 542.95;" xml:space="preserve">
<style type="text/css">
	.st0{fill:#5C6270;}
</style>
<path class="st0" d="M860.97,338.89c-2.51-26.95-40.45-49.9-91.31-58.5c0.01-0.49,0.04-0.98,0.04-1.47
	c0-37.71-33.38-71.73-86.89-95.79c26.87-6.11,44.54-16.46,44.54-28.21c0-18.78-45.14-34-100.83-34c-4.08,0-8.11,0.08-12.06,0.24
	c1.13-5.27,1.71-10.66,1.71-16.16c0-57.99-65.03-105-145.25-105c-64.88,0-119.82,30.76-138.46,73.2c-7.62-1.47-15.9-2.28-24.57-2.28
	c-37.66,0-68.2,15.22-68.2,34c0,8.67,6.52,16.58,17.24,22.59c-33.03,16-53.43,36.7-54.73,59.4
	C100.09,206.33,17.62,257.96,2.45,318.6c-19.34,77.29,77.93,139.95,217.27,139.95c2.7,0,5.39-0.03,8.08-0.08
	c-0.87,2.5-1.33,5.03-1.33,7.6c0,36.47,89.91,66.03,200.81,66.03c0.81,0,1.61-0.01,2.42-0.01c31.73,6.95,67.24,10.85,104.74,10.85
	c134.67,0,243.84-50.22,243.84-112.17c0-10.97-3.44-21.58-9.83-31.6C824.19,392.43,863.67,368,860.97,338.89z"/>
</svg>
