<?xml version="1.0" encoding="utf-8"?>
<!-- Generator: Adobe Illustrator 23.0.1, SVG Export Plug-In . SVG Version: 6.00 Build 0)  -->
<svg version="1.1" id="Layer_1" xmlns="http://www.w3.org/2000/svg" xmlns:xlink="http://www.w3.org/1999/xlink" x="0px" y="0px"
	 viewBox="0 0 1058.41 1070.42" style="enable-background:new 0 0 1058.41 1070.42;" xml:space="preserve">
<style type="text/css">
	.st0{fill:#3A4B6D;}
</style>
<path class="st0" d="M233.3,40.87c0.63,2.87-1.65,7.32-5.16,8.1c-3.51,0.78-6.88-1.1-8.1-5.16c-1.29-4.29-0.57-10.44,3.78-14.32
	C229.41,31.17,232.35,36.55,233.3,40.87z"/>
<path class="st0" d="M70.04,11.39c0.63,2.87-1.65,7.32-5.16,8.1c-3.51,0.78-6.88-1.1-8.1-5.16C55.5,10.03,56.22,3.88,60.57,0
	C66.15,1.68,69.09,7.07,70.04,11.39z"/>
<path class="st0" d="M195.62,211.91c0.63,2.87-1.65,7.32-5.16,8.1c-3.51,0.78-6.88-1.1-8.1-5.16c-1.29-4.29-0.57-10.44,3.78-14.32
	C191.72,202.2,194.66,207.59,195.62,211.91z"/>
<path class="st0" d="M70.04,173.82c0.63,2.87-1.65,7.32-5.16,8.1c-3.51,0.78-6.88-1.1-8.1-5.16c-1.29-4.29-0.57-10.44,3.78-14.32
	C66.15,164.11,69.09,169.49,70.04,173.82z"/>
<path class="st0" d="M25.04,466.29c0.63,2.87-1.65,7.32-5.16,8.1c-3.51,0.78-6.88-1.1-8.1-5.16c-1.29-4.29-0.57-10.44,3.78-14.32
	C21.15,456.58,24.09,461.96,25.04,466.29z"/>
<path class="st0" d="M345.24,284.47c0.63,2.87-1.65,7.32-5.16,8.1c-3.51,0.78-6.88-1.1-8.1-5.16c-1.29-4.29-0.57-10.44,3.78-14.32
	C341.35,274.76,344.29,280.15,345.24,284.47z"/>
<path class="st0" d="M131.41,376.85c0.63,2.87-1.65,7.32-5.16,8.1c-3.51,0.78-6.88-1.1-8.1-5.16c-1.29-4.29-0.57-10.44,3.78-14.32
	C127.51,367.14,130.45,372.52,131.41,376.85z"/>
<path class="st0" d="M220.26,438.32c0.63,2.87-1.65,7.32-5.16,8.1c-3.51,0.78-6.88-1.1-8.1-5.16c-1.29-4.29-0.57-10.44,3.78-14.32
	C216.36,428.61,219.31,434,220.26,438.32z"/>
<path class="st0" d="M100.37,144.53c0.63,2.87-1.65,7.32-5.16,8.1c-3.51,0.78-6.88-1.1-8.1-5.16c-1.29-4.29-0.57-10.44,3.78-14.32
	C96.48,134.82,99.42,140.21,100.37,144.53z"/>
<path class="st0" d="M349.18,173.82c0.63,2.87-1.65,7.32-5.16,8.1c-3.51,0.78-6.88-1.1-8.1-5.16c-1.29-4.29-0.57-10.44,3.78-14.32
	C345.28,164.11,348.23,169.49,349.18,173.82z"/>
<path class="st0" d="M378.99,82.33c0.63,2.87-1.65,7.32-5.16,8.1c-3.51,0.78-6.88-1.1-8.1-5.16c-1.29-4.29-0.57-10.44,3.78-14.32
	C375.1,72.62,378.04,78.01,378.99,82.33z"/>
<path class="st0" d="M449.83,21.22c0.63,2.87-1.65,7.32-5.16,8.1c-3.51,0.78-6.88-1.1-8.1-5.16c-1.29-4.29-0.57-10.44,3.78-14.32
	C445.94,11.51,448.88,16.89,449.83,21.22z"/>
<path class="st0" d="M787.62,265.8c0.63,2.87-1.65,7.32-5.16,8.1c-3.51,0.78-6.88-1.1-8.1-5.16c-1.29-4.29-0.57-10.44,3.78-14.32
	C783.72,256.09,786.66,261.47,787.62,265.8z"/>
<path class="st0" d="M703.94,11.39c0.63,2.87-1.65,7.32-5.16,8.1c-3.51,0.78-6.88-1.1-8.1-5.16c-1.29-4.29-0.57-10.44,3.78-14.32
	C700.05,1.68,702.99,7.07,703.94,11.39z"/>
<path class="st0" d="M978.02,47.95c0.63,2.87-1.65,7.32-5.16,8.1c-3.51,0.78-6.88-1.1-8.1-5.16c-1.29-4.29-0.57-10.44,3.78-14.32
	C974.13,38.24,977.07,43.62,978.02,47.95z"/>
<path class="st0" d="M508.9,189.35c0.63,2.87-1.65,7.32-5.16,8.1c-3.51,0.78-6.88-1.1-8.1-5.16c-1.29-4.29-0.57-10.44,3.78-14.32
	C505,179.64,507.94,185.03,508.9,189.35z"/>
<path class="st0" d="M404.83,408.16c0.63,2.87-1.65,7.32-5.16,8.1c-3.51,0.78-6.88-1.1-8.1-5.16c-1.29-4.29-0.57-10.44,3.78-14.32
	C400.94,398.45,403.88,403.84,404.83,408.16z"/>
<path class="st0" d="M47.1,886.8c0.63,2.87-1.65,7.32-5.16,8.1s-6.88-1.1-8.1-5.16c-1.29-4.29-0.57-10.44,3.78-14.32
	C43.2,877.1,46.14,882.48,47.1,886.8z"/>
<path class="st0" d="M587.65,484.39c0.63,2.87-1.65,7.32-5.16,8.1c-3.51,0.78-6.88-1.1-8.1-5.16c-1.29-4.29-0.57-10.44,3.78-14.32
	C583.75,474.68,586.69,480.07,587.65,484.39z"/>
<path class="st0" d="M667.47,317.34c0.63,2.87-1.65,7.32-5.16,8.1c-3.51,0.78-6.88-1.1-8.1-5.16c-1.29-4.29-0.57-10.44,3.78-14.32
	C663.58,307.63,666.52,313.01,667.47,317.34z"/>
<path class="st0" d="M757.13,549.09c0.63,2.87-1.65,7.32-5.16,8.1c-3.51,0.78-6.88-1.1-8.1-5.16c-1.29-4.29-0.57-10.44,3.78-14.32
	C753.23,539.38,756.17,544.76,757.13,549.09z"/>
<path class="st0" d="M750.16,484.39c0.63,2.87-1.65,7.32-5.16,8.1c-3.51,0.78-6.88-1.1-8.1-5.16c-1.29-4.29-0.57-10.44,3.78-14.32
	C746.26,474.68,749.2,480.07,750.16,484.39z"/>
<path class="st0" d="M552.21,92.16c0.63,2.87-1.65,7.32-5.16,8.1c-3.51,0.78-6.88-1.1-8.1-5.16c-1.29-4.29-0.57-10.44,3.78-14.32
	C548.31,82.45,551.26,87.83,552.21,92.16z"/>
<path class="st0" d="M674.44,154.36c0.63,2.87-1.65,7.32-5.16,8.1c-3.51,0.78-6.88-1.1-8.1-5.16c-1.29-4.29-0.57-10.44,3.78-14.32
	C670.54,144.65,673.49,150.03,674.44,154.36z"/>
<path class="st0" d="M1058.3,224.87c0.63,2.87-1.65,7.32-5.16,8.1c-3.51,0.78-6.88-1.1-8.1-5.16c-1.29-4.29-0.57-10.44,3.78-14.32
	C1054.41,215.17,1057.35,220.55,1058.3,224.87z"/>
<path class="st0" d="M895.04,195.39c0.63,2.87-1.65,7.32-5.16,8.1c-3.51,0.78-6.88-1.1-8.1-5.16c-1.29-4.29-0.57-10.44,3.78-14.32
	C891.15,185.68,894.09,191.07,895.04,195.39z"/>
<path class="st0" d="M1020.62,395.91c0.63,2.87-1.65,7.32-5.16,8.1c-3.51,0.78-6.88-1.1-8.1-5.16c-1.29-4.29-0.57-10.44,3.78-14.32
	C1016.72,386.2,1019.66,391.59,1020.62,395.91z"/>
<path class="st0" d="M895.04,357.82c0.63,2.87-1.65,7.32-5.16,8.1s-6.88-1.1-8.1-5.16c-1.29-4.29-0.57-10.44,3.78-14.32
	C891.15,348.11,894.09,353.49,895.04,357.82z"/>
<path class="st0" d="M850.04,650.29c0.63,2.87-1.65,7.32-5.16,8.1c-3.51,0.78-6.88-1.1-8.1-5.16c-1.29-4.29-0.57-10.44,3.78-14.32
	C846.15,640.58,849.09,645.96,850.04,650.29z"/>
<path class="st0" d="M956.41,560.85c0.63,2.87-1.65,7.32-5.16,8.1c-3.51,0.78-6.88-1.1-8.1-5.16c-1.29-4.29-0.57-10.44,3.78-14.32
	C952.51,551.14,955.45,556.52,956.41,560.85z"/>
<path class="st0" d="M1045.26,622.32c0.63,2.87-1.65,7.32-5.16,8.1c-3.51,0.78-6.88-1.1-8.1-5.16c-1.29-4.29-0.57-10.44,3.78-14.32
	C1041.36,612.61,1044.31,618,1045.26,622.32z"/>
<path class="st0" d="M925.37,328.53c0.63,2.87-1.65,7.32-5.16,8.1c-3.51,0.78-6.88-1.1-8.1-5.16c-1.29-4.29-0.57-10.44,3.78-14.32
	C921.48,318.82,924.42,324.21,925.37,328.53z"/>
<path class="st0" d="M820.8,886.8c0.63,2.87-1.65,7.32-5.16,8.1c-3.51,0.78-6.88-1.1-8.1-5.16c-1.29-4.29-0.57-10.44,3.78-14.32
	C816.9,877.1,819.84,882.48,820.8,886.8z"/>
<path class="st0" d="M927.16,797.37c0.63,2.87-1.65,7.32-5.16,8.1c-3.51,0.78-6.88-1.1-8.1-5.16c-1.29-4.29-0.57-10.44,3.78-14.32
	C923.27,787.66,926.21,793.04,927.16,797.37z"/>
<path class="st0" d="M1016.01,858.84c0.63,2.87-1.65,7.32-5.16,8.1c-3.51,0.78-6.88-1.1-8.1-5.16c-1.29-4.29-0.57-10.44,3.78-14.32
	C1012.12,849.13,1015.06,854.52,1016.01,858.84z"/>
<path class="st0" d="M13.83,701.16c0.63,2.87-1.65,7.32-5.16,8.1c-3.51,0.78-6.88-1.1-8.1-5.16c-1.29-4.29-0.57-10.44,3.78-14.32
	C9.94,691.45,12.88,696.84,13.83,701.16z"/>
<path class="st0" d="M196.65,777.39c0.63,2.87-1.65,7.32-5.16,8.1c-3.51,0.78-6.88-1.1-8.1-5.16c-1.29-4.29-0.57-10.44,3.78-14.32
	C192.75,767.68,195.69,773.07,196.65,777.39z"/>
<path class="st0" d="M276.47,610.34c0.63,2.87-1.65,7.32-5.16,8.1c-3.51,0.78-6.88-1.1-8.1-5.16c-1.29-4.29-0.57-10.44,3.78-14.32
	C272.58,600.63,275.52,606.01,276.47,610.34z"/>
<path class="st0" d="M366.13,842.09c0.63,2.87-1.65,7.32-5.16,8.1c-3.51,0.78-6.88-1.1-8.1-5.16c-1.29-4.29-0.57-10.44,3.78-14.32
	C362.23,832.38,365.17,837.76,366.13,842.09z"/>
<path class="st0" d="M359.16,777.39c0.63,2.87-1.65,7.32-5.16,8.1c-3.51,0.78-6.88-1.1-8.1-5.16c-1.29-4.29-0.57-10.44,3.78-14.32
	C355.26,767.68,358.2,773.07,359.16,777.39z"/>
<path class="st0" d="M629.62,688.91c0.63,2.87-1.65,7.32-5.16,8.1c-3.51,0.78-6.88-1.1-8.1-5.16c-1.29-4.29-0.57-10.44,3.78-14.32
	C625.72,679.2,628.66,684.59,629.62,688.91z"/>
<path class="st0" d="M504.04,650.82c0.63,2.87-1.65,7.32-5.16,8.1c-3.51,0.78-6.88-1.1-8.1-5.16c-1.29-4.29-0.57-10.44,3.78-14.32
	C500.15,641.11,503.09,646.49,504.04,650.82z"/>
<path class="st0" d="M459.04,943.29c0.63,2.87-1.65,7.32-5.16,8.1c-3.51,0.78-6.88-1.1-8.1-5.16c-1.29-4.29-0.57-10.44,3.78-14.32
	C455.15,933.58,458.09,938.96,459.04,943.29z"/>
<path class="st0" d="M565.41,853.85c0.63,2.87-1.65,7.32-5.16,8.1c-3.51,0.78-6.88-1.1-8.1-5.16c-1.29-4.29-0.57-10.44,3.78-14.32
	C561.51,844.14,564.45,849.52,565.41,853.85z"/>
<path class="st0" d="M654.26,915.32c0.63,2.87-1.65,7.32-5.16,8.1c-3.51,0.78-6.88-1.1-8.1-5.16c-1.29-4.29-0.57-10.44,3.78-14.32
	C650.36,905.61,653.31,911,654.26,915.32z"/>
<path class="st0" d="M534.37,621.53c0.63,2.87-1.65,7.32-5.16,8.1c-3.51,0.78-6.88-1.1-8.1-5.16c-1.29-4.29-0.57-10.44,3.78-14.32
	C530.48,611.82,533.42,617.21,534.37,621.53z"/>
<path class="st0" d="M233.3,1010.87c0.63,2.87-1.65,7.32-5.16,8.1c-3.51,0.78-6.88-1.1-8.1-5.16c-1.29-4.29-0.57-10.44,3.78-14.32
	C229.41,1001.17,232.35,1006.55,233.3,1010.87z"/>
<path class="st0" d="M70.04,981.39c0.63,2.87-1.65,7.32-5.16,8.1c-3.51,0.78-6.88-1.1-8.1-5.16c-1.29-4.29-0.57-10.44,3.78-14.32
	C66.15,971.68,69.09,977.07,70.04,981.39z"/>
<path class="st0" d="M378.99,1052.33c0.63,2.87-1.65,7.32-5.16,8.1c-3.51,0.78-6.88-1.1-8.1-5.16c-1.29-4.29-0.57-10.44,3.78-14.32
	C375.1,1042.62,378.04,1048.01,378.99,1052.33z"/>
<path class="st0" d="M449.83,991.22c0.63,2.87-1.65,7.32-5.16,8.1c-3.51,0.78-6.88-1.1-8.1-5.16c-1.29-4.29-0.57-10.44,3.78-14.32
	C445.94,981.51,448.88,986.89,449.83,991.22z"/>
<path class="st0" d="M703.94,981.39c0.63,2.87-1.65,7.32-5.16,8.1c-3.51,0.78-6.88-1.1-8.1-5.16c-1.29-4.29-0.57-10.44,3.78-14.32
	C700.05,971.68,702.99,977.07,703.94,981.39z"/>
<path class="st0" d="M978.02,1017.95c0.63,2.87-1.65,7.32-5.16,8.1c-3.51,0.78-6.88-1.1-8.1-5.16c-1.29-4.29-0.57-10.44,3.78-14.32
	C974.13,1008.24,977.07,1013.62,978.02,1017.95z"/>
<path class="st0" d="M552.21,1062.16c0.63,2.87-1.65,7.32-5.16,8.1c-3.51,0.78-6.88-1.1-8.1-5.16c-1.29-4.29-0.57-10.44,3.78-14.32
	C548.31,1052.45,551.26,1057.83,552.21,1062.16z"/>
</svg>
