<?xml version="1.0" encoding="utf-8"?>
<!-- Generator: Adobe Illustrator 23.0.1, SVG Export Plug-In . SVG Version: 6.00 Build 0)  -->
<svg version="1.1" id="Layer_1" xmlns="http://www.w3.org/2000/svg" xmlns:xlink="http://www.w3.org/1999/xlink" x="0px" y="0px"
	 viewBox="0 0 1031.27 276.74" style="enable-background:new 0 0 1031.27 276.74;" xml:space="preserve">
<g>
	<polygon points="1030.3,240.16 1004.53,237.72 1002.07,235.25 1002.66,214.07 996.14,201.53 992.73,197.68 989.27,197.44 
		979.44,211.04 975.7,272.31 973.32,274.8 973.29,269.6 971.95,266.13 972.97,217.91 970.81,215.75 949.88,220.21 948.36,217.65 
		937.48,220.05 933.99,222.88 932.93,239.97 928.71,243.69 925.76,240.75 925.16,223.64 917.36,212.65 913.84,212.8 903.44,231.04 
		899.3,230.57 895.99,223.01 895.95,222.57 893.9,217.63 888.79,211.04 886.65,214.75 883.52,217.7 876.05,231.1 869.14,234.01 
		868.37,233.67 858.11,234.46 857.65,232.07 859.11,206.44 855.19,202.27 830.07,201.51 827.86,203.21 825.97,216.21 823.51,218.48 
		814.37,218.43 814.37,184.14 810.71,184.01 808.49,183.29 799.92,183.29 797.46,184.1 787.65,181.43 786.29,178.59 785.92,173.88 
		782.31,166.62 780.92,167.79 780.66,168.87 776.85,171.67 775.05,171.66 769.94,169.37 766.29,169.47 765.3,170.67 763.55,171.42 
		759.7,158.45 758.7,157.42 757.49,158.48 756.68,160.09 753.23,162.17 751.2,162.15 744.28,157.35 742.84,158.49 739.21,176.22 
		737.48,176.86 725.75,176.81 722.81,175.47 715.76,174.44 715.16,176.84 712.75,178.96 706.47,181.38 697.22,181.46 695.19,179.47 
		694.05,169.32 692.58,168.09 675.08,168.62 670.61,166.35 669.86,148.39 660.57,139.87 644.32,139.96 641.86,137.69 639.97,124.69 
		637.76,122.99 612.65,123.75 608.72,127.91 610.18,153.55 609.73,155.94 599.46,155.15 598.7,155.49 591.78,152.58 584.31,139.18 
		581.18,136.23 579.05,132.52 573.94,139.1 571.89,144.05 571.85,144.49 568.54,152.05 564.39,152.52 554,134.28 550.47,134.13 
		542.67,145.12 542.07,162.23 539.12,165.17 534.91,161.45 533.84,144.36 530.35,141.53 519.47,139.12 517.96,141.68 497.03,137.23 
		494.86,139.39 495.13,152 489.58,151.95 488.39,132.52 478.56,118.92 475.11,119.16 471.7,123.01 465.17,135.55 465.62,151.71 
		435.24,151.42 434.39,137.33 430.08,135.01 429.17,137.3 429.27,151.36 428.03,151.35 426.95,180.72 422.29,181.03 421.09,178.69 
		421.11,166.96 414.73,161.66 414.72,158.83 408.71,157.96 407.52,156.19 404.13,153.58 389.74,155.15 387.44,153.73 386.35,123.83 
		314.2,124.53 312.66,126.19 315.03,165.24 296.41,169.21 294.9,166.65 289.55,167.83 285.24,163.51 281.75,90.73 280.85,89.47 
		255.96,88.49 252.83,85.7 250.91,55.03 235.22,17.07 232.62,0 232.17,0 230.92,2.85 229.54,17.06 214.61,58.07 214.91,162.67 
		206.42,171.15 204.76,171.12 205.65,155.44 201.72,151.27 176.61,150.51 174.4,152.21 172.51,165.21 170.05,167.48 153.8,167.39 
		144.51,175.91 143.76,193.87 139.29,196.15 121.79,195.61 120.32,196.84 119.18,206.99 117.15,208.98 107.9,208.91 101.62,206.48 
		99.22,204.36 98.61,201.96 91.56,203 88.62,204.33 76.89,204.38 75.16,203.74 71.53,186.02 70.09,184.87 63.17,189.67 61.14,189.7 
		57.69,187.61 56.88,186.01 55.67,184.94 54.67,185.97 50.82,198.95 49.07,198.19 48.08,196.99 44.43,196.89 39.32,199.18 
		37.52,199.19 33.71,196.39 33.45,195.31 32.06,194.14 28.45,201.4 28.08,206.11 26.72,208.96 16.91,211.62 14.45,210.81 
		5.88,210.82 3.66,211.53 0,211.66 0,276.74 1031.27,276.74 	"/>
</g>
</svg>
