<?xml version="1.0" encoding="utf-8"?>
<!-- Generator: Adobe Illustrator 23.0.1, SVG Export Plug-In . SVG Version: 6.00 Build 0)  -->
<svg version="1.1" id="Layer_1" xmlns="http://www.w3.org/2000/svg" xmlns:xlink="http://www.w3.org/1999/xlink" x="0px" y="0px"
	 viewBox="0 0 1582.15 1592.24" style="enable-background:new 0 0 1582.15 1592.24;" xml:space="preserve">
<style type="text/css">
	.st0{fill:#FFF19B;}
	.st1{fill:#FFF7C3;}
	.st2{fill:#F4744D;}
	.st3{fill:#FFBD66;}
</style>
<circle class="st0" cx="790.47" cy="785.53" r="375.35"/>
<polygon class="st1" points="790.05,984.97 41.37,1047.47 48.22,861.29 790.28,978.66 "/>
<polygon class="st2" points="790.47,984.96 56.72,1146.32 38.79,960.87 789.86,978.67 "/>
<polygon class="st3" points="746.7,978.47 1.95,879.57 48.43,699.14 748.28,972.35 "/>
<polygon class="st2" points="702.73,963.5 0,697.79 86.3,532.67 705.65,957.91 "/>
<polygon class="st1" points="666.44,938.77 44.12,517.88 166.23,377.16 670.57,934 "/>
<polygon class="st3" points="637.18,906.8 127.24,355.08 278.23,245.92 642.3,903.1 "/>
<polygon class="st2" points="614.95,866.46 253.8,207.67 426.73,138.32 620.81,864.11 "/>
<polygon class="st1" points="603.29,822.94 408.52,97.34 592.95,70.94 609.54,822.04 "/>
<polygon class="st3" points="602.35,777.14 588.1,25.99 773.46,44.79 608.63,777.77 "/>
<polygon class="st2" points="612.43,732.59 779,0 954.42,62.78 618.37,734.71 "/>
<polygon class="st1" points="632.47,692.41 967.33,19.88 1122.97,122.31 637.75,695.88 "/>
<polygon class="st3" points="659.51,659.94 1135.55,78.73 1264.51,213.2 663.88,664.5 "/>
<polygon class="st2" points="695.92,632.63 1297.26,182.27 1390.27,343.7 699.07,638.1 "/>
<polygon class="st1" points="738.26,614.7 1430.63,323.06 1481.86,502.19 739.99,620.76 "/>
<polygon class="st3" points="783.49,607.54 1525.71,491.21 1532.3,677.4 783.71,613.85 "/>
<polygon class="st2" points="829.45,611.55 1577.72,678.73 1538.95,860.97 828.13,617.72 "/>
<polygon class="st1" points="874.21,627.16 1582.15,878.65 1499.2,1045.48 871.4,632.81 "/>
<polygon class="st3" points="912.98,652.83 1537.97,1069.75 1416.75,1211.24 908.88,657.63 "/>
<polygon class="st2" points="943.38,685.91 1452.16,1238.7 1300.95,1347.54 938.26,689.6 "/>
<polygon class="st1" points="964.68,724.21 1332.27,1379.43 1160.03,1450.46 958.84,726.62 "/>
<polygon class="st3" points="976.8,767.85 1177.76,1491.75 993.56,1519.73 970.56,768.79 "/>
<polygon class="st2" points="978.03,814.67 994.59,1565.77 809.17,1547.53 971.75,814.05 "/>
<polygon class="st1" points="968.49,858.14 808.77,1592.24 632.77,1531.11 962.53,856.06 "/>
<polygon class="st3" points="947.29,900.85 608.7,1571.51 453.64,1468.23 942.03,897.35 "/>
<polygon class="st2" points="917.15,935.89 425.75,1504.19 300.43,1366.32 912.9,931.22 "/>
<polygon class="st1" points="879.65,962.45 272.86,1405.42 181.82,1242.87 876.57,956.94 "/>
<polygon class="st3" points="836.87,979.14 160.31,1305.78 99.99,1129.51 834.83,973.16 "/>
</svg>
