<?xml version="1.0" encoding="utf-8"?>
<!-- Generator: Adobe Illustrator 23.0.1, SVG Export Plug-In . SVG Version: 6.00 Build 0)  -->
<svg version="1.1" id="Layer_1" xmlns="http://www.w3.org/2000/svg" xmlns:xlink="http://www.w3.org/1999/xlink" x="0px" y="0px"
	 viewBox="0 0 1366.12 1150.91" style="enable-background:new 0 0 1366.12 1150.91;" xml:space="preserve">
<style type="text/css">
	.st0{fill:#3F392B;}
</style>
<path class="st0" d="M1343.97,398.04c-13.9,1.78-34.43,2.96-57.08-1.84c-21.71-4.6-24.76-10.33-46.27-15.42
	c-31.77-7.52-38.5,1.81-72.69-3.5c-35.86-5.57-40.52-17.69-70.67-20.58c-24.48-2.34-22.12,6.17-61.02,9.14
	c-13.3,1.02-41.42,2.24-74.72-3.65c-1.29-0.38-2.34-0.66-3.03-0.84c0.01,0.1,0.02,0.19,0.04,0.29c-5.25-0.99-10.61-2.15-16.06-3.52
	c-10.43-2.63-18.74-5.4-24.27-7.4c19.06-10.16,36.56-14.88,49.12-17.31c13.32-2.58,24.43-3.23,36.07-3.66
	c37.44,3.04,72.06,3.17,96.37,0.93c7.36-0.68,21.37-2.27,40.39-0.63c26.33,2.27,38.38,8.68,57.65,12.34
	c16.24,3.09,40.99,4.88,75.28-3.07c-0.87-4.79-1.74-9.57-2.6-14.36c-7.25,4.67-18.28,10.13-33.12,11.52
	c-23.34,2.19-37.79-7.39-72.18-13.19c-16.34-2.76-25.39-2.67-50.26-3.69c-8.77-0.36-17.14-0.7-25.15-1.03
	c9.77-3.17,11.03-5.73,11.02-7.27c-0.02-2.9-4.51-5.45-8.59-7.23c-7.83,3.21-19.77,7.47-35.32,10.65c-3.78,0.77-7.4,1.4-10.89,1.91
	c-54.91-2.69-89.16-5.76-118.56-13.22c-9.9-2.51-37.47-10.02-76.53-15.69c-9.09-1.32-16.54-2.21-21.16-2.73
	c14.32-13.76,28.75-23.78,39.73-30.57c17.9-11.06,42.51-26.27,80.29-34.18c16.54-3.46,18.53-1.95,48.61-7.62
	c13.38-2.52,30.4-5.77,49.93-11.29c18.35-5.19,40-11.31,62.93-23.98c14.62-8.08,30.43-17.05,38.83-30.12
	c7.8,3.22,13.96,6.41,18.46,8.96c2.17-2.09,4.58-5.13,4.04-8.46c-0.54-3.29-4.02-7.17-17.69-11.19c0,0,0,0,0,0
	c1.64-6.1,1.33-11.36,0.79-14.91c-2.73,3.63-6.17,7.86-10.46,12.44c-11.04-2.47-26.4-4.96-47.74-7.37
	c-29.85-3.37-73.26-6.79-128.13-5.97c2.78-0.8,46.48-13.77,49.68-35.8c0.73-5.05-0.7-10.27-2.72-14.67
	c5.29,3.37,8.34,6.32,8.34,6.32c5.94,5.77,8.28,11.36,9.31,14.75c3.91-3.88,7.69-9.26,6.42-15.33
	c-4.11-19.52-57.23-29.97-75.58-33.58c-26.46-5.2-108.01-21.24-159.74,10.1c-11.44,6.93-31.49,19.08-34.5,37.61
	c-1.06,6.51,0.23,12.33,0.47,18.19c-12.2,3.73-13.9,1.47-32.94,6.49c-12.32,3.25-19.44,6.26-24.68,8.1
	c-7.47-5.95-14.3-13.3-18.48-22.15c3.6-1.12,7.91-1.72,11.87-5.06c8.15-6.88,1.03-13.77,7.72-23.63c3.6-5.31,9.67-9.23,16.17-12.16
	c-14.87-0.24-21.3,2.52-24.39,5.16c-5.58,4.77-1.54,10.17-7.04,15.36c-1.74,1.65-4.05,2.88-6.63,3.82
	c4.98-10.99,9.96-21.97,14.93-32.96c14.84-4.5,30.16-3.48,38,2.22c3.44,2.5,2.25,6.42,5.23,7.03c3.84,0.8,11-4.08,10.53-8.36
	c-0.72-6.64-21.27-10.33-26.31-11.26c-7.96-1.46-23.91-3.4-44.9,1.11c-7.9-0.35-18.01-1.68-23.2-6.59c-5.5-5.2-1.45-10.6-7.04-15.36
	c-3.1-2.65-9.52-5.41-24.39-5.16c6.5,2.93,12.58,6.86,16.17,12.16c6.69,9.86-0.43,16.75,7.72,23.63c6.41,5.41,13.76,3.63,17.49,8.5
	c4.95,6.45-1.57,17.92-12.28,20.22c-8.48,1.82-13.22-3.47-36.49-9.61c-20.29-5.35-20.88-2.43-35.49-7.31
	c-16.14-5.39-18.71-10.05-35.1-14.76c-10.01-2.88-18.84-3.95-24.43-4.42c3.72,3.26,9.76,8.09,18.37,13.04
	c12.65,7.27,23.77,10.74,41.72,16.65c19.46,6.4,31.05,10.21,38.41,12.82c-0.14,0.03-0.3,0.05-0.44,0.08
	c-5.04,0.93-25.59,4.62-26.31,11.26c-0.46,4.28,6.69,9.15,10.53,8.36c2.98-0.62,1.79-4.53,5.23-7.03
	c6.55-4.76,18.32-6.24,30.66-3.99c3.06,1.7,6.05,3.55,9.07,5.59c4.92,10.86,9.84,21.73,14.77,32.59c-0.51,3.99-1.65,8.35-3.8,12.93
	c-3.68,7.84-9.44,14.51-15.88,20.07c-21.9-12.82-42.3-23.37-60.04-31.89c-3.71-17.81-23.08-29.55-34.25-36.32
	c-37.2-22.53-89.81-20.57-126.28-15.76c-0.07-0.01-0.15-0.02-0.22-0.03c-10.9-6.93-25.45-18.25-34.07-34.14
	c-7.69-14.16-8.08-27.18-8.29-34.13c-0.17-5.52,0.26-10.13,0.71-13.42c-4.07,5.88-9.5,15.71-10.48,28.55
	c-0.9,11.93,2.4,21.74,5.25,27.97c-3.72-1.55-19.71-8.52-26.92-21.01c-1.36-2.35-5.23-9.06-4.03-17.22
	c0.34-2.34,0.96-3.85,0.67-3.91c-0.92-0.2-12.11,13.21-10.32,25.56c3.2,22.03,46.9,35,49.68,35.8c-54.86-0.82-98.27,2.6-128.13,5.97
	c-63.5,7.17-74.14,15.07-75.11,21.03c-0.54,3.33,1.87,6.38,4.04,8.46c6.49-3.68,16.46-8.71,29.85-13.21
	c9.16-3.08,37.15-11.69,100.34-10.58c15.34,0.27,35.03,0.68,58.58,3.08c-23.13,5.17-57.34,14.96-60.6,30.47
	c-1.28,6.06,2.51,11.44,6.42,15.33c1.03-3.39,3.37-8.98,9.31-14.75c0,0,6.17-5.99,16.25-10.67c18.21-8.45,51.83-11.42,81.25-12.27
	c1.21,0.25,2.41,0.5,3.63,0.76c50.47,10.83,88.44,26.8,114.44,39.7c2.92,12.57,7.31,17.6,12.31,30.46
	c1.88,4.84,4.8,12.34,6.89,21.15c-11.01-1.4-22.05-2.28-32.81-2.44c-8.14-0.12-18.75-0.21-28.88,1.29
	c-11.99-7.44-24.44-17.85-27.96-31.52c-2-7.75-0.55-14.32,0.98-18.63c-1.39-3.21-4.17-8.28-8.51-8.72
	c-6.12-0.62-13.16,8.21-15.36,14.8c-6.25,18.77,20.34,38.77,33.32,48.3c0.21,0.15,0.4,0.29,0.61,0.44
	c-2.75,1.27-5.27,2.79-7.46,4.63c-6.29,5.29-7.8,11.41-8.15,15.43c8.01-2.55,20.01-5.84,35.04-7.99
	c15.87,8.12,27.89,10.2,47.62,22.85c3.17,2.03,6.11,4.06,8.86,6.12c-5.06,11.26-15.71,26.67-38.79,43.23
	c-20.44-2.81-36.93-6.29-48.69-9.12c-24.21-5.81-38.45-9.34-52.52-17.86c-13.06-7.92-9.22-9.99-23.5-20.31
	c-9.76-7.05-29.09-21.02-59.58-24.18c-8.6-0.89-26.37-1.78-49.1,4.37c7.38-1.04,18.35-2.01,31.33-1.08
	c4.3,0.31,17.36,1.43,30.57,5.69c27.3,8.8,39.4,25.87,43.17,31.87c-20.51,0.13-50.17-1.54-82.38-10.14
	c-8.9-2.38-47.3-13.11-81.68-39.34c-15.6-11.9-25.66-23.4-31.95-31.78c-0.54,3.55-0.85,8.81,0.79,14.91
	c5.16,19.2,25.34,30.7,43.64,40.81c22.93,12.68,44.58,18.8,62.93,23.98c19.53,5.52,36.54,8.76,49.93,11.29
	c30.08,5.67,32.08,4.16,48.61,7.62c37.78,7.91,62.39,23.12,80.29,34.18c10.99,6.79,25.42,16.82,39.73,30.57
	c-4.62,0.52-12.07,1.41-21.16,2.73c-39.06,5.67-66.63,13.18-76.53,15.69c-10,2.54-20.57,4.57-32.31,6.25
	c-6.74-3.01-12.99-6.17-13.66-10.71c-0.97-6.61,10.55-11.67,13-12.7c0.64-4.95,1.27-9.89,1.91-14.84
	c-4.62,1.19-25.78,6.99-29.04,19.24c-2.01,7.55,3.55,14.67,11.45,21.05c-19.34,2.1-41.94,3.56-69.9,4.93
	c-3.49-0.51-7.11-1.14-10.89-1.91c-15.55-3.17-27.49-7.44-35.32-10.65c-4.08,1.78-8.57,4.33-8.59,7.23
	c-0.01,1.54,1.25,4.1,11.02,7.27c-8.01,0.33-16.38,0.67-25.15,1.03c-24.86,1.01-33.92,0.93-50.26,3.69
	c-34.38,5.8-48.84,15.38-72.18,13.19c-14.84-1.39-25.87-6.85-33.12-11.52c-0.87,4.79-1.74,9.57-2.6,14.36
	c34.29,7.96,59.04,6.17,75.28,3.07c19.27-3.67,31.32-10.07,57.65-12.34c19.02-1.64,33.03-0.05,40.39,0.63
	c24.31,2.24,58.93,2.11,96.37-0.93c11.64,0.43,22.75,1.08,36.07,3.66c12.56,2.43,30.06,7.15,49.12,17.31
	c-5.54,2-13.84,4.77-24.27,7.4c-41.38,10.43-77.99,8.93-93.77,7.73c-38.9-2.98-36.54-11.49-61.02-9.14
	c-30.14,2.89-34.8,15.01-70.67,20.58c-34.19,5.31-40.92-4.01-72.69,3.5c-21.51,5.09-24.56,10.81-46.27,15.42
	c-22.66,4.8-43.18,3.62-57.08,1.84c-7.39,1.68-14.77,3.36-22.16,5.03c18.17,3.6,45.11,6.99,76.4,3.01
	c32.48-4.13,34.37-11.71,69.78-16.04c42.74-5.23,52.49,4.28,83.83-4.9c17.06-5,23.57-10.56,40.88-11.36
	c16.27-0.75,24.92,3.5,39.59,6.66c19.62,4.22,37.75,2.86,74,0.16c23.67-1.77,56.89-5.73,95.61-15.31
	c25.7,17.29,44.03,32.76,56.13,43.82c8.08,7.39,14.87,14.16,21.29,20.31c-11.85-6.55-34.96-16.93-62.12-15.31
	c-11.44,0.68-22.5,3.44-32.06,7.67c-25.92-5.81-45.8-6.74-56.55-6.87c-41.89-0.51-73.16,5.44-73.16,5.44
	c-26.96,5.13-41.9,11.88-71.32,13.03c-17.67,0.69-32.54-0.95-42.47-2.48c-9.72,1.56-20.83,3.83-20.51,6.28
	c0.43,3.39,22.6,5.8,36.65,6.63c32.9,1.95,52.56-2.88,91.2-7.38c26.22-3.05,40.66-4.74,57.44-4.87c19.94-0.15,37.58,1.93,56.35,6.04
	c-3.15,3.68-5.5,7.65-6.84,11.81c-1.01,3.15-3.94,12.98,3.21,24.11c12.07,18.79,42.03,24.44,45.76,25.11
	c19.89-0.4,24.68-1.75,24.83-3.03c0.39-3.44-32.92-3.78-48.35-18.53c-8.95-8.55-10.76-20.87-3.97-30.89
	c1.02-1.5,2.18-2.87,3.44-4.12c18.52,5.02,38.95,11.75,64.11,20.03c61.86,20.39,76.29,31.86,82.13,36.95
	c5.77,5.02,10.38,10.09,14.08,14.99c-8.56,1.34-14.98,0.48-22.52,2.19c-20.14,4.59-19.23,21.12-43.46,47.4
	c-11.49,12.46-22.18,24.05-41.98,33.11c-6.68,3.06-15.06,6.12-75.41,15.62c-44.41,6.99-42.22,5.7-63.39,9.69
	c-25.36,4.78-45.41,9.81-74.22,17.05c-19.71,4.95-36.01,9.33-47.55,12.5c6.47,0.28,18.56,0.6,33.61-0.47
	c63.46-4.5,92.56-22.77,135.33-27.35c29.55-3.17,34.22,0.16,60.28-5.02c11.8-2.34,36.62-7.28,59.49-19.93
	c41.98-23.22,36.04-49.59,72.93-62.58c5.86-2.06,11.72-3.41,17.33-4.27c1.04,2.44,1.87,4.72,2.53,6.78
	c-0.97,17.2-1.85,43.14-0.59,74.73c2.79,69.78,12.89,88.55,18.7,140.45c-4.53,19.33-9.3,42.38-13.28,79.93
	c-8.28,78.2,1.29,83.38-13.97,117.45c-31.02,69.24-87.84,86.47-74.72,113.53c21.73,44.83,205.56,54.92,234.29,20.69
	c8.44-10.06-0.17-19.58-14.51-36.38c24.55-6.9,43.36-16.73,49.44-29.28c13.11-27.05-43.7-44.28-74.72-113.53
	c-15.27-34.08-5.69-39.25-13.97-117.45c-1.65-15.62-3.45-28.73-5.3-40.11c4.54-23.86,9.01-47.47,10.72-90.32
	c1.26-31.59,0.38-57.53-0.59-74.73c3.22-9.97,10.22-25.06,27.05-39.71c3.78-3.29,11.13-9.24,32.53-18.53
	c7.27,9.25,16.4,19.06,33.22,28.37c22.87,12.65,47.69,17.58,59.49,19.93c26.06,5.18,30.72,1.85,60.28,5.02
	c42.77,4.58,71.87,22.85,135.33,27.35c15.05,1.07,27.14,0.75,33.61,0.47c-11.54-3.17-27.84-7.55-47.55-12.5
	c-28.81-7.24-48.85-12.27-74.22-17.05c-21.17-3.99-18.99-2.7-63.39-9.69c-60.35-9.5-68.73-12.57-75.41-15.62
	c-19.8-9.05-30.49-20.65-41.98-33.11c-0.23-0.25-0.44-0.48-0.66-0.73c8.71-3.3,19.46-5.39,30.88-10.86
	c63.6-30.47,118.59-30.68,138.53-30.53c16.78,0.13,31.22,1.81,57.44,4.87c38.64,4.5,58.3,9.33,91.2,7.38
	c14.05-0.83,36.21-3.24,36.65-6.63c0.31-2.45-10.79-4.71-20.51-6.28c-9.93,1.53-24.8,3.17-42.47,2.48
	c-29.42-1.15-44.36-7.9-71.32-13.03c0,0-31.28-5.95-73.16-5.44c-10.75,0.13-30.62,1.06-56.55,6.87
	c-11.2,2.12-100.93,26.72-104.01,29.46c-5.47-8.31-19.17-22.62-29.48-24.97c-10.4-2.37-18.67,0.21-33.37-4.94
	c-8.83-3.09-14.86-7.18-18.43-9.98c-0.02-0.14-0.03-0.28-0.05-0.42c0.73-4.7,1.47-9.4,2.2-14.1c3.23-5.65,8.2-12.54,15.9-19.66
	c6.28-0.97,13.42-2.45,20.89-4.73c20.75-6.34,33.45-15.64,46.6-27.73c2.22-0.4,4.47-0.76,6.78-1.05c34.33-4.41,38.23,8.2,76.48,4.5
	c36.98-3.58,61.51-18.1,70.51-23.56c14.6-8.87,33.76-20.52,30.82-33.49c32.32,2.39,49.51,3.37,68.02-0.6
	c14.68-3.15,23.32-7.41,39.59-6.66c17.32,0.8,23.82,6.37,40.88,11.36c31.34,9.18,41.08-0.33,83.83,4.9
	c35.41,4.34,37.3,11.92,69.78,16.04c31.29,3.98,58.23,0.59,76.4-3.01C1358.74,401.39,1351.35,399.72,1343.97,398.04z M895.53,312.75
	c15.74,3.95,32.29,7.25,49.03,9.94c-17.24,2.83-37.88,7.63-57.12,15.75c-34.7,14.65-56.42,36.58-72.29,52.6
	c-16.61,16.77-21.58,26.52-42.28,36.41c-21.18,10.11-50.73,16.49-57.75,10.83c-5.32-4.29,6.5-12.11,23.24-36.77
	c11.49-16.93,24.26-35.73,33.45-60.1c3.93-10.42,5.99-18.65,17.07-25.92c3.03-1.99,13.44-8.3,35.32-10.65
	C854.48,301.6,879.95,308.84,895.53,312.75z M651.87,393.48c-2.83-2.4-10.67-9.47-20.89-34.67c-9.3-22.92-6.32-25.73-13.99-31.33
	c-13.77-10.06-29.51-5.47-38.91-14.92c-2.69-2.7-7.45-9.17,0.66-29.95c4.2-10.75,9.71-19.85,15.71-28
	c7.74,8.9,14.72,18.99,23.33,31.42c24.68,35.67,31.87,65.27,34.1,76.01c2.68,12.89,3.56,24.46,3.58,34.25
	C654.25,395.42,653.04,394.48,651.87,393.48z M791.87,257.87c-6.9,1.77-13.88,3.99-22.28,8.35c-22.45,11.64-34.04,27.6-40.46,40.5
	c-4.26-2.74-8.51-5.48-12.77-8.23c-0.21-18.18-0.43-36.36-0.64-54.54c12.54-10.56,30.08-23.96,53.21-37.93
	c7.05,9.06,13.62,19.25,18.45,31.62C791.01,246.94,792.06,253.36,791.87,257.87z M787.52,170.94c-0.28-3.51-0.26-7-0.02-10.42
	c9.32-0.93,18.26-1.28,26.3-1.29C804.97,162.97,796.36,166.88,787.52,170.94z M753.13,187.49c-17.94,9.13-37.86,20.08-58.83,33.04
	c-0.97-0.35-2-0.71-3.09-1.09c6.64-16.09,12.01-25.71,25-35.3c6.91-5.1,14.63-9.2,22.77-12.48
	C743.31,176.45,747.97,181.68,753.13,187.49z M627.14,216.63c8.14,3.28,15.86,7.38,22.77,12.48c0.05,0.04,0.09,0.07,0.14,0.11
	c-0.1,8.1-0.19,16.2-0.29,24.31c-4.26,2.74-8.51,5.48-12.77,8.23c-4.58-9.2-11.8-19.96-23.72-29.61
	C618.33,226.46,622.89,221.34,627.14,216.63z M677.46,302.24c-0.48-9.51-0.95-19.99-0.01-31.54c0.58,1.46,1.18,2.97,1.8,4.54
	c11.35,28.68,10.4,52.4,9.41,71.97c-0.19,3.66-0.48,7.66-0.94,11.96C680.6,336.12,678.19,316.6,677.46,302.24z M1038.32,132.38
	c59.44-1.04,87.73,6.52,98.5,9.98c-3.87,3.58-8.22,7.28-13.13,11.03c-34.38,26.23-72.78,36.96-81.68,39.34
	c-32.21,8.6-61.86,10.26-82.38,10.14c3.76-6,15.87-23.07,43.17-31.87c13.21-4.26,26.27-5.38,30.57-5.69
	c12.99-0.93,23.95,0.05,31.33,1.08c-22.73-6.15-40.5-5.26-49.1-4.37c-30.49,3.16-49.82,17.13-59.58,24.18
	c-14.27,10.31-10.43,12.39-23.5,20.31c-12.23,7.41-24.6,11.05-43.54,15.69c9.48-9.46,17.01-20.82,13.37-31.77
	c-2.19-6.59-9.23-15.43-15.36-14.8c-4.33,0.44-7.12,5.51-8.51,8.72c1.53,4.31,2.98,10.89,0.98,18.63
	c-2.69,10.45-10.6,18.99-19.53,25.76c-8.4,1.64-17.97,3.29-28.63,4.75c-21.83-15.66-32.54-30.28-37.92-41.35
	c15.21-8.2,36.87-19.04,65.15-29.27c10.61,2,19.26,4.43,25.49,6.41c-0.3-3.44-1.46-8.41-5.71-13.08
	c13.75-4.31,28.78-8.36,45.13-11.87C972.91,133.72,1012.01,132.84,1038.32,132.38z M1009.56,66.47c-0.03,6.67-3.08,11.97-4.25,14
	c-7.21,12.49-23.2,19.46-26.92,21.01c2.85-6.23,6.15-16.04,5.25-27.97c-0.44-5.77-1.78-10.92-3.49-15.39
	c11.04,1.85,20.88,4.36,28.2,7.76C1008.77,66.08,1009.16,66.28,1009.56,66.47z M815.52,65.83c6.7-7.04,19.51-9.78,55.55-11.7
	c0,0,58.69-3.14,102.81,3.05c-0.01,0.4-0.01,0.8-0.02,1.22c-0.21,6.95-0.6,19.97-8.29,34.13c-8.62,15.89-23.17,27.22-34.07,34.14
	c-13.4,1.92-31.92,5.11-53.26,10.59c-9.23,2.37-17.74,4.85-25.77,7.44c-10.42-1.65-21.44-1.56-29.84-1.44
	c-10.76,0.16-21.79,1.04-32.81,2.44c2.09-8.81,5.01-16.31,6.89-21.15c3.04-7.8,5.85-12.72,8.24-18.18c3.24-1.49,6.43-3.12,9.73-5.02
	c8.61-4.95,14.65-9.77,18.37-13.04c-5.45,0.45-13.98,1.49-23.68,4.21c0.11-0.52,0.22-1.05,0.33-1.6
	C812.49,76.49,809.92,71.71,815.52,65.83z M730.01,132.46c6.56-2.49,17.76-6.19,39.51-13.34c-0.7,1.91-1.7,3.87-3.09,5.89
	c-5.47,7.93-14.34,12.95-21.02,15.97c-4.04-1.63-10.13-4.26-16.8-7.98C729.07,132.82,729.54,132.64,730.01,132.46z M671.58,172.51
	c16.31-13.97,27.46-23.45,38.98-30.52c5.51,5.26,10.75,10.57,16.24,16.41c-23.62,6.28-43.44,13.04-54.98,17.16
	c-0.74-0.46-1.47-0.9-2.21-1.35C670.26,173.65,670.92,173.08,671.58,172.51z M629.13,182.28c-3.27,1.54-6.16,2.77-8.41,3.67
	c-6.69-3.02-15.55-8.04-21.02-15.97c-2.4-3.48-3.62-6.76-4.18-9.95C608.38,167.74,619.56,175.28,629.13,182.28z M553.24,114.64
	c-11.64-4.97-23.62-9.66-36.94-14.05c20.31,1.91,29.13,4.78,34.3,10.21C551.83,112.1,552.65,113.34,553.24,114.64z M646.59,195.81
	c1.31,1.08,2.6,2.14,3.81,3.17c-0.03,2.47-0.06,4.95-0.09,7.42c-3.56-1.01-7.23-2.03-10.99-3.03
	C641.78,200.76,644.19,198.26,646.59,195.81z M544.03,204.29c9.94-0.25,21.91-0.06,34.59,1.2c0.2,2.84,0.25,5.73,0.1,8.63
	C567.95,210.98,558.04,209.75,544.03,204.29z M470.59,357.72c15.58-3.91,41.05-11.15,71.34-7.91c21.88,2.34,32.28,8.66,35.32,10.65
	c10.7,7.02,12.99,14.95,16.68,24.89c-12.5-3.05-23.5-4.61-32.69-5.42c-39.68-3.48-63.25,5.4-104.02-4.59
	c-5.71-1.4-13.32-4.36-25.16-9.45C445.2,363.56,458.15,360.85,470.59,357.72z M550.97,436.01c-12.49-12.6-28.61-28.87-51.83-42.37
	c21.69-1.19,29.7-8.55,57.16-5.02c17.93,2.3,33.05,7.83,44.87,13.72c8.14,16.94,17.74,31.1,26.59,44.14
	c7.9,11.63,14.7,19.51,19.12,25.05c-0.52,4.55-1.04,9.09-1.56,13.64c-11.54,1.37-34.63-4.42-52.07-12.74
	C572.54,462.53,567.58,452.78,550.97,436.01z M489.94,473.94c0.54-0.07,0.99-0.12,1.31-0.16c2.08-0.23,30.12-3.04,46.55,10.2
	c6.44,5.19,8.55,10.8,9.35,14C526.72,487.22,507.44,479.49,489.94,473.94z M605.96,509.65c-8.08-3.86-13.38-7.56-17.76-11.27
	c6.24,3.45,13.22,6.44,21.48,8.97c12.59,3.85,24.24,5.41,32.41,6.11c-0.28,2.41-0.55,4.82-0.83,7.23
	C632.11,519.04,619.13,515.94,605.96,509.65z M753.67,536.23c8.4,2.96,14.57,6.61,19.6,10.76c-3.49,2.51-7.67,5.03-13.11,7.63
	c-13.17,6.29-26.15,9.39-35.29,11.04c-1.34-11.67-2.67-23.34-4.01-35.01C730.43,530.86,742.07,532.15,753.67,536.23z M973.39,388.88
	c-0.72,4.87-7.84,8.14-15.1,11.35c-26.99,11.94-40.49,17.9-49.39,20.08c-37.58,9.2-60.57,2.38-95.01,3.99
	c4.88-4.74,10.1-9.81,16-15.21c12.1-11.06,30.43-26.53,56.13-43.82c31.01,7.67,58.47,11.74,80.35,13.96
	C970.11,381.55,973.97,384.94,973.39,388.88z"/>
</svg>
